<svg xmlns="http://www.w3.org/2000/svg" viewBox="0 0 64 64" width="64" height="64">
  <g>
    <path d="M32 2C15.432 2 2 15.432 2 32s13.432 30 30 30 30-13.432 30-30S48.568 2 32 2zm0 58C16.561 60 4 47.439 4 32S16.561 4 32 4s28 12.561 28 28-12.561 28-28 28z" fill="#8B4513"/>
    <path d="M44 24c-2.209 0-4 1.791-4 4s1.791 4 4 4 4-1.791 4-4-1.791-4-4-4zm-24 0c-2.209 0-4 1.791-4 4s1.791 4 4 4 4-1.791 4-4-1.791-4-4-4z" fill="#000"/>
    <path d="M32 48c-8.837 0-16-7.163-16-16h4c0 6.627 5.373 12 12 12s12-5.373 12-12h4c0 8.837-7.163 16-16 16z" fill="#D2691E"/>
    <path d="M40 32c0 4.418-3.582 8-8 8s-8-3.582-8-8h16z" fill="#FFF"/>
  </g>
</svg>